HIERARCHY
ROOT ui
{
	 OFFSET 0 0 0
	 CHANNELS 3 XPosition YPosition Z Position
	 EndSite
	 {
	 OFFSET 0 -1 0
	 }
}
ROOT li
{
	 OFFSET 0 0 0
	 CHANNELS 3 XPosition YPosition Z Position
	 EndSite
	 {
	 OFFSET 0 -1 0
	 }
}
ROOT ul
{
	 OFFSET 0 0 0
	 CHANNELS 3 XPosition YPosition Z Position
	 EndSite
	 {
	 OFFSET 0 -1 0
	 }
}
ROOT ll
{
	 OFFSET 0 0 0
	 CHANNELS 3 XPosition YPosition Z Position
	 EndSite
	 {
	 OFFSET 0 -1 0
	 }
}
ROOT tt
{
	 OFFSET 0 0 0
	 CHANNELS 3 XPosition YPosition Z Position
	 EndSite
	 {
	 OFFSET 0 -1 0
	 }
}
ROOT tb
{
	 OFFSET 0 0 0
	 CHANNELS 3 XPosition YPosition Z Position
	 EndSite
	 {
	 OFFSET 0 -1 0
	 }
}
ROOT td
{
	 OFFSET 0 0 0
	 CHANNELS 3 XPosition YPosition Z Position
	 EndSite
	 {
	 OFFSET 0 -1 0
	 }
}
ROOT v
{
	 OFFSET 0 0 0
	 CHANNELS 3 XPosition YPosition Z Position
	 EndSite
	 {
	 OFFSET 0 -1 0
	 }
}
ROOT bn
{
	 OFFSET 0 0 0
	 CHANNELS 3 XPosition YPosition Z Position
	 EndSite
	 {
	 OFFSET 0 -1 0
	 }
}
MOTION
Frames: 16
Frame Time: 0.002
-0.003355036973953247	4.6314999461174013E-4	0		0.36916342163085936	-2.337467041015625	0		-1.152602294921875	-0.007075056076049805	0		-0.8972011108398438	-2.22021142578125	0		1.53954638671875	-0.610051513671875	0		3.295878173828125	-0.2066921844482422	0		4.7474853515625	-0.17774583435058594	0		5.59267333984375	0.09144271850585937	0		-0.05048896408081055	5.98086962890625	0		
-0.04525543594360352	0.008821799278259277	0		0.4343061218261719	-2.335706787109375	0		-1.07351611328125	-6.126250028610229E-4	0		-0.8141124267578125	-2.221794189453125	0		1.5496591796875	-0.6033934936523437	0		3.3143759765625	-0.17305992126464845	0		4.7624521484375	-0.17898275756835938	0		5.5900361328125	0.11752257537841797	0		-0.04685097503662109	5.9805302734375	0		
-0.045425464630126956	0.004552274227142334	0		0.3974088134765625	-2.330392333984375	0		-1.0746854248046875	-0.004925300121307373	0		-0.8141561279296875	-2.226107177734375	0		1.5874439697265625	-0.613145263671875	0		3.297871337890625	-0.19989524841308592	0		4.76635302734375	-0.17904080200195313	0		5.59979833984375	0.10942181396484375	0		-0.07935555267333984	5.9767431640625	0		
-0.041667877197265626	0.004234657764434814	0		0.42721908569335937	-2.3360751953125	0		-1.074987060546875	-0.009239994049072265	0		-0.810273681640625	-2.226468017578125	0		1.58819140625	-0.6163259887695313	0		3.302775390625	-0.19104168701171875	0		4.76115185546875	-0.17695396423339843	0		5.58943115234375	0.10163158416748047	0		-0.09109597778320312	5.965650390625	0		
-0.04112653732299805	9.777569770812989E-4	0		0.41185946655273437	-2.34106689453125	0		-1.071400390625	-0.00959831428527832	0		-0.809611083984375	-2.2297666015625	0		1.5918111572265625	-0.61653955078125	0		3.3122666015625	-0.1982510986328125	0		4.76962744140625	-0.1850690155029297	0		5.58790771484375	0.0947111587524414	0		-0.05374808120727539	5.9708359375	0		
-0.03774068069458008	6.925250291824341E-4	0		0.4153670654296875	-2.341328369140625	0		-1.0639547119140624	-0.005997222900390625	0		-0.877996826171875	-2.222018310546875	0		1.5583077392578124	-0.6111884155273437	0		3.304872802734375	-0.184199462890625	0		4.7661279296875	-0.17800053405761718	0		5.60051171875	0.10958256530761719	0		-0.06959580993652344	5.9758330078125	0		
-0.03152926635742188	0.003380506992340088	0		0.42272305297851565	-2.33663330078125	0		-1.055728271484375	-0.002389453887939453	0		-0.7977588500976562	-2.225471435546875	0		1.6014708251953125	-0.6139718017578125	0		3.311810546875	-0.20036021423339845	0		4.78028759765625	-0.17919532775878907	0		5.60367333984375	0.1095921859741211	0		-0.03165142250061035	5.98004296875	0		
0.02134412956237793	-0.0016083979606628417	0		0.4496619262695313	-2.344215576171875	0		-1.0578486328125	-0.006609856128692627	0		-0.8716805419921875	-2.22261328125	0		1.5644713134765624	-0.6115523681640626	0		3.331067626953125	-0.17969480895996093	0		4.77225048828125	-0.17806022644042968	0		5.6066064453125	0.10960200500488282	0		-0.06405704498291015	5.975314453125	0		
-0.025886722564697266	0.002903512954711914	0		0.4156171264648437	-2.33387841796875	0		-1.0592025146484374	-0.010822589874267579	0		-0.79699365234375	-2.23094140625	0		1.60412353515625	-0.617260498046875	0		3.3285732421875	-0.19370658874511718	0		4.78185791015625	-0.18518942260742188	0		5.6141875	0.1015376739501953	0		-0.07676548767089844	5.96430712890625	0		
0.022472373962402342	-0.004983503818511963	0		0.41817425537109376	-2.334071044921875	0		-1.0567347412109376	-0.011071845054626465	0		-0.869358642578125	-2.2250751953125	0		1.5666337890625	-0.6158177490234376	0		3.300198974609375	-0.18333119201660156	0		4.78842041015625	-0.17927377319335938	0		5.61176953125	0.10961780548095704	0		-0.04044257354736328	5.96959375	0		
-0.021191850662231445	0.0025040409564971926	0		0.4313936767578125	-2.34040673828125	0		-1.0445224609375	-0.012444729804992677	0		-0.827057861328125	-2.225883056640625	0		1.57194140625	-0.6119968872070313	0		3.322180908203125	-0.20069783020019533	0		4.77967041015625	-0.1781345672607422	0		5.61886083984375	0.10055138397216797	0		-0.055376682281494144	5.97265283203125	0		
-0.019205921173095702	0.002334043025970459	0		0.437526123046875	-2.335621826171875	0		-1.1144696044921876	-0.007590439796447754	0		-0.8578956909179688	-2.2185947265625	0		1.5800487060546875	-0.6052056884765625	0		3.337553466796875	-0.17495651245117189	0		4.7906318359375	-0.1802857666015625	0		5.62596044921875	0.1084841537475586	0		-0.019493721008300782	5.97798193359375	0		
-0.017461050033569337	0.0021841909885406494	0		0.4352641906738281	-2.34069970703125	0		-1.0467169189453125	-0.007738230228424073	0		-0.7852276000976562	-2.228807373046875	0		1.61567529296875	-0.6148075561523437	0		3.3169541015625	-0.19868669128417968	0		4.78542626953125	-0.17719757080078125	0		5.6177177734375	0.10964009857177734	0		-0.019888072967529296	5.979861328125	0		
-0.015952537536621094	0.0020542290210723876	0		0.4259208679199219	-2.334657958984375	0		-1.0452081298828124	-0.007894217014312744	0		-0.8616250610351562	-2.225816162109375	0		1.61415576171875	-0.6178519897460938	0		3.316657958984375	-0.18570448303222656	0		4.79182177734375	-0.1852783660888672	0		5.61510693359375	0.10171198272705079	0		-0.03368998336791992	5.96895166015625	0		
-0.017714714050292967	-0.0010124670267105103	0		0.4272546081542969	-2.3347587890625	0		-1.0479844970703125	-0.01196929931640625	0		-0.785374755859375	-2.232040771484375	0		1.5785279541015624	-0.6123865356445313	0		3.335751708984375	-0.19900198364257812	0		4.793107421875	-0.18528131103515624	0		5.61638623046875	0.10172750854492188	0		-0.0514675178527832	5.97411767578125	0		
-0.013603739738464356	0.0018506430387496948	0		0.4392794189453125	-2.341002685546875	0		-1.04285888671875	-0.008141157150268554	0		-0.856153564453125	-2.224099365234375	0		1.5796075439453126	-0.6124479370117187	0		3.326028564453125	-0.18486988830566406	0		4.78728125	-0.1781781005859375	0		5.62643603515625	0.10061444854736327	0		-0.049532272338867187	5.97300927734375	0		
